PathFileType	4	(X/Y/Z)	s04c0102.trc
DataRate	CameraRate	NumFrames	NumMarkers	Units	OrigDataRate	OrigDataStartFrame	OrigNumFrames
200	200	7	50	mm	200	750	2000
Frame#	Time	racr			lacr			c7			jug			rlel			rdr			llel			ldr			s2			lic			ric			lasi			rasi			rpsi			lpsi			rgt			lgt			rth1			rth2			rth3			rth4			rlfc			rmfc			rsh1			rsh2			rsh3			rsh4			rlmal			rmmal			rcal			rtoe			rmt5			lth1			lth2			lth4			lth3			llfc			lmfc			lsh1			lsh2			lsh3			lsh4			llmal			lmmal			lcal			ltoe			lmt5			SBIKE			LBIKE			RBIKE			
		X1	Y1	Z1	X2	Y2	Z2	X3	Y3	Z3	X4	Y4	Z4	X5	Y5	Z5	X6	Y6	Z6	X7	Y7	Z7	X8	Y8	Z8	X9	Y9	Z9	X10	Y10	Z10	X11	Y11	Z11	X12	Y12	Z12	X13	Y13	Z13	X14	Y14	Z14	X15	Y15	Z15	X16	Y16	Z16	X17	Y17	Z17	X18	Y18	Z18	X19	Y19	Z19	X20	Y20	Z20	X21	Y21	Z21	X22	Y22	Z22	X23	Y23	Z23	X24	Y24	Z24	X25	Y25	Z25	X26	Y26	Z26	X27	Y27	Z27	X28	Y28	Z28	X29	Y29	Z29	X30	Y30	Z30	X31	Y31	Z31	X32	Y32	Z32	X33	Y33	Z33	X34	Y34	Z34	X35	Y35	Z35	X36	Y36	Z36	X37	Y37	Z37	X38	Y38	Z38	X39	Y39	Z39	X40	Y40	Z40	X41	Y41	Z41	X42	Y42	Z42	X43	Y43	Z43	X44	Y44	Z44	X45	Y45	Z45	X46	Y46	Z46	X47	Y47	Z47	X48	Y48	Z48	X49	Y49	Z49	X50	Y50	Z50	
750	3.7500	496.143201	1350.076244	-163.662657	492.157448	1348.544668	-422.056806	476.479485	1410.331623	-296.475977	423.291924	1262.228803	-301.167895	467.530129	1076.874180	4.438551	684.932180	911.490138	-104.025583	447.508088	1087.799228	-556.358556	676.492371	920.292972	-487.670340	-81.393189	1178.743107	-282.513009	63.464393	1202.191651	-443.522700	74.596141	1191.156364	-121.851470	107.704484	1160.245300	-399.290566	114.688980	1158.534531	-115.615461	-55.210270	1225.471236	-237.668057	-58.176658	1230.574959	-311.871093	27.744570	1128.818573	-107.513959	41.870895	1113.622895	-469.183775	131.073912	1002.362106	-87.269968	200.940180	948.227453	-90.051314	236.811627	870.760356	-86.984217	226.867943	969.154817	-106.327472	298.948741	740.232221	-100.108882	289.769316	721.650031	-214.633480	215.731793	643.033013	-82.467651	182.423161	560.302755	-102.511412	112.269106	512.043592	-119.064505	211.866428	544.201064	-122.163883	30.002395	384.142859	-134.201456	65.740502	379.812661	-214.853723	-36.550685	388.989477	-184.435755	206.743800	209.921468	-150.163190	131.151374	226.240404	-104.838693	113.782811	1051.412793	-475.637462	198.244079	1031.819209	-476.628133	215.187116	1063.270774	-468.748411	263.017753	970.512072	-475.381484	389.694909	873.039232	-449.999467	418.240103	854.341144	-341.116176	369.206462	755.290368	-473.835929	361.535827	670.873852	-451.948201	313.786210	596.464067	-450.742657	388.012547	665.603507	-422.957036	256.494602	465.680769	-448.536716	253.321794	463.654652	-360.074127	177.492629	435.369340	-407.811708	478.176616	445.339090	-419.042639	410.012414	402.930197	-479.770224	-185.563941	933.622271	-285.658333	-17.680445	79.137651	-485.372846	-17.390634	78.970002	-84.796991	
751	3.7550	495.058564	1350.418763	-163.438363	491.857341	1348.386184	-421.956469	475.503226	1410.528422	-295.892889	422.892762	1262.219638	-300.821626	466.640350	1076.690819	3.237253	684.828219	911.515015	-104.524601	447.798677	1087.224520	-556.377375	676.822799	919.863485	-487.467404	-80.963884	1175.829263	-282.552470	63.650847	1198.783354	-443.980091	74.865979	1189.497525	-122.237905	108.442834	1156.827976	-399.653665	115.147301	1157.851990	-115.459601	-54.796763	1222.621402	-237.460248	-57.522843	1226.704993	-313.106825	28.764735	1127.192777	-107.228113	42.566021	1106.928791	-468.406341	135.156352	1003.814259	-88.394961	206.049049	950.907402	-90.800265	243.464203	874.347912	-86.658297	231.461000	972.133481	-107.479009	306.655741	744.214148	-99.073086	297.489112	725.325022	-213.428122	221.747414	648.941241	-81.349721	186.418022	567.114473	-101.483630	114.914240	520.718318	-118.015519	215.307171	550.354654	-121.346036	29.064618	395.150163	-133.602813	64.758975	390.420180	-214.119428	-37.133061	401.642192	-183.706186	201.946982	217.055237	-150.326555	126.835748	235.040736	-104.730190	114.657652	1044.562090	-475.374455	198.979324	1024.068648	-476.305466	216.206273	1055.478494	-468.807997	263.106122	962.139259	-474.669508	387.441048	862.970003	-449.630154	416.314056	844.984460	-339.732517	368.119410	745.447941	-473.307556	361.798759	660.941614	-451.567389	315.246376	585.720128	-450.267651	388.605696	656.007839	-422.888702	260.022538	453.561222	-448.216231	256.988409	451.903891	-359.307354	181.149875	422.527813	-408.137933	482.138567	436.766239	-418.876638	414.496447	393.374675	-479.583430	-185.551748	933.610825	-285.398245	-17.641475	79.167537	-485.364487	-17.372598	78.969355	-84.789810	
752	3.7600	494.144398	1350.899213	-163.233496	491.599179	1348.337968	-421.965758	474.400989	1410.868488	-295.463168	422.855742	1262.185518	-300.601323	466.170179	1076.715623	2.488785	684.908287	911.615249	-104.556324	448.446747	1086.927391	-556.912699	677.243271	919.577004	-487.470675	-80.657669	1172.764938	-282.702080	64.095685	1195.382775	-444.632307	75.101331	1187.895560	-122.615854	109.257496	1153.950688	-400.073270	115.678112	1157.224434	-115.393323	-53.790200	1218.159312	-239.527607	-58.511326	1223.913036	-312.860273	30.018477	1125.467212	-107.057699	43.344471	1100.611194	-467.597479	139.200086	1005.103838	-88.964866	210.968321	953.516412	-91.259705	249.935132	877.837121	-86.080559	236.082314	975.049723	-107.968028	314.276707	748.255885	-97.775048	305.120872	729.002763	-212.269360	227.665126	655.106404	-80.303961	190.482972	574.069857	-100.517630	117.920235	529.486155	-116.945265	220.125368	557.056593	-120.400835	28.647066	406.350303	-132.842731	64.376192	401.007438	-213.417744	-37.391842	414.374777	-183.011386	197.756401	224.655747	-150.184646	123.050768	244.091193	-104.710512	115.656386	1038.128181	-475.379922	199.607986	1016.399198	-475.945736	217.334721	1048.016266	-468.935331	263.209066	954.091477	-474.251526	384.774719	854.170581	-449.675814	414.036408	836.367039	-339.178390	367.057754	736.040966	-472.791186	361.854035	651.144544	-451.483909	316.177721	575.488037	-450.303217	388.861026	646.370698	-422.897693	263.026327	441.972627	-448.296141	259.849763	441.719293	-359.937801	185.221350	409.459642	-407.882031	485.632670	427.659167	-418.699657	418.574575	383.522371	-479.382504	-185.546100	933.624178	-285.188302	-17.620082	79.193635	-485.341242	-17.342228	78.967052	-84.770413	
753	3.7650	493.314874	1351.563220	-163.050159	491.233710	1348.412984	-422.138930	473.341860	1411.257041	-295.256589	422.796107	1262.222461	-300.360947	466.008602	1076.869959	2.144829	684.988318	911.781561	-104.463232	449.358097	1086.804855	-557.717497	677.638046	919.291470	-487.509051	-80.279274	1169.676758	-283.024393	64.701440	1192.050192	-445.312361	75.337768	1186.420527	-123.032876	110.167085	1151.144448	-400.408223	116.266297	1156.676421	-115.405716	-55.600614	1216.640267	-238.571168	-58.798562	1220.515661	-313.491404	31.327919	1123.698280	-106.702134	44.138981	1094.867142	-466.840461	143.012236	1006.410178	-89.170843	215.738347	956.169746	-91.324254	256.182837	881.339596	-85.369948	240.323667	977.658764	-108.537600	321.827869	752.530948	-96.853054	312.597656	732.911891	-211.115151	233.715539	661.376831	-79.236301	194.739122	581.200389	-99.534615	121.109441	538.315847	-115.938643	223.859018	563.722648	-119.703889	28.786804	417.507747	-132.171849	64.508201	411.713211	-212.691497	-37.127194	426.963082	-182.287939	194.188292	232.448692	-150.182978	119.861379	253.362813	-104.668444	116.545265	1032.432216	-475.636343	200.261633	1009.690172	-476.075470	218.414332	1041.005832	-469.249245	263.020046	946.620025	-474.205928	382.211247	845.828357	-449.938347	411.814027	828.030679	-339.074843	365.805668	726.520405	-472.223229	361.589744	641.635702	-451.713047	316.692773	565.566178	-450.944411	388.860060	637.021376	-423.372662	265.854919	430.492642	-448.709196	263.690416	430.118442	-358.326362	188.478312	397.518116	-408.486716	488.895828	418.000274	-418.447858	422.246445	373.306246	-479.225341	-185.542489	933.600472	-284.993175	-17.609111	79.212451	-485.323489	-17.328979	78.953107	-84.748003	
754	3.7700	492.634142	1352.043256	-162.839559	490.771041	1348.583027	-422.457869	472.294756	1411.777684	-295.321233	422.636365	1262.439853	-300.493404	466.126636	1077.283264	2.171064	684.966988	911.997200	-104.219230	450.496101	1086.884218	-558.897856	678.063048	919.056153	-487.764319	-79.857352	1166.661372	-283.521872	65.630424	1189.093468	-446.189051	75.515172	1185.060292	-123.417790	111.177371	1148.625855	-400.730030	116.897036	1156.231006	-115.488693	-53.993045	1211.548819	-240.344996	-59.137057	1217.177364	-314.244697	32.744428	1121.924751	-106.512227	45.047635	1090.009444	-466.402110	146.617596	1007.594551	-88.998440	220.312392	958.633245	-91.160288	262.040935	884.660112	-84.660324	244.667233	980.931608	-108.231508	329.307495	757.095940	-95.836265	319.905762	737.020174	-210.059603	239.750501	667.695105	-78.337937	198.909082	588.529864	-98.825994	124.405648	547.235424	-115.046039	227.663845	570.396562	-119.064263	29.466427	428.758186	-131.559042	65.812054	422.786837	-211.832021	-36.411517	439.539039	-181.746483	191.187255	240.493202	-150.272071	117.334331	262.824448	-104.680493	117.332308	1027.545627	-476.189125	200.725215	1003.491010	-476.460360	219.319536	1034.573186	-469.776636	262.537364	939.593088	-474.277828	379.532323	837.708230	-450.375215	409.396538	819.203281	-340.285023	364.315031	717.393559	-472.510403	361.035969	632.418714	-452.266911	317.055425	555.814495	-451.612933	388.607257	627.909117	-424.156901	268.480225	419.383587	-449.343363	266.850993	419.522494	-358.246705	191.421982	386.182362	-409.279121	491.787669	407.754631	-418.099079	425.477899	362.800798	-479.010902	-185.547397	933.701289	-285.027014	-17.591346	79.171475	-485.315782	-17.354229	78.971051	-84.741007	
755	3.7750	491.957104	1352.736911	-162.826224	490.481742	1348.936948	-422.895678	471.371048	1412.461035	-295.471188	422.550096	1262.842895	-300.739835	466.405116	1077.927639	2.515401	684.863394	912.234995	-103.890891	451.837379	1087.200587	-560.363655	678.411480	918.796975	-488.150551	-79.534096	1163.720346	-285.743379	66.459751	1186.379723	-446.948700	75.661159	1184.003695	-123.808375	112.220233	1146.447869	-401.162049	117.556285	1155.908890	-115.636567	-55.583352	1210.911745	-239.697010	-59.707513	1214.060415	-314.048200	34.189977	1120.194842	-106.572411	45.991177	1086.101266	-466.334536	149.967866	1008.907647	-88.493160	224.434086	961.219053	-90.752955	267.562207	887.968262	-83.911337	248.340476	983.730589	-108.276051	336.526456	761.818812	-94.895951	326.941545	741.365549	-209.100119	245.654177	674.180193	-77.467219	202.769967	595.833086	-98.605658	127.845215	556.215596	-114.281123	231.524934	577.310936	-118.533889	30.433012	439.967498	-131.165803	66.456218	433.446272	-211.547520	-35.328691	452.046139	-181.411986	188.788094	248.981542	-150.342552	115.332588	272.650551	-104.699893	117.880910	1023.365369	-476.936310	200.787678	997.937698	-476.954886	219.918084	1028.756514	-470.481664	261.449864	932.905279	-474.517234	377.130774	829.317364	-451.537869	407.965311	810.619638	-340.258795	362.784821	708.455937	-473.227840	360.481237	623.475335	-453.014012	317.376106	546.415347	-452.530300	388.426924	619.254320	-425.569262	271.291601	408.540709	-449.963314	269.190887	409.504504	-358.630004	193.852011	375.467955	-410.270177	494.396339	397.032862	-417.569046	428.280747	352.116398	-478.793824	-185.484303	933.693136	-285.039141	-17.591438	79.160606	-485.313806	-17.336201	78.942223	-84.749489	
756	3.7800	491.406497	1353.558075	-162.854642	490.490062	1349.695222	-423.469806	470.576384	1413.243908	-296.087311	422.895486	1263.251081	-301.360093	466.754023	1078.703348	2.990046	684.606795	912.392040	-103.590603	453.320334	1087.816836	-562.039465	678.617231	918.520003	-488.530011	-78.594790	1161.015438	-285.805358	67.662357	1184.319834	-447.882899	75.719171	1183.198786	-124.172320	113.533456	1144.722110	-401.972460	118.230936	1155.728680	-115.845563	-55.421996	1208.655167	-240.661955	-60.297028	1210.762510	-314.071100	35.621791	1118.499613	-107.016134	46.971028	1083.112072	-466.573479	152.904580	1010.394900	-87.812530	228.110142	964.031250	-90.161958	272.561139	891.554466	-83.403230	251.586461	986.529587	-108.525593	343.438286	766.912602	-94.100437	333.580441	746.034131	-208.237097	251.444302	680.854929	-76.712895	207.081992	603.236531	-98.174071	131.355056	565.268561	-113.761668	235.402047	584.568325	-118.139690	31.663449	451.252113	-131.069030	67.122644	444.090420	-211.581662	-33.952475	464.403686	-181.299248	186.971695	257.898454	-150.481186	114.065618	282.740653	-104.731607	118.029226	1019.987437	-477.958698	200.400161	992.918975	-477.568011	220.164786	1023.273571	-471.253193	259.754762	926.631675	-474.862970	374.495770	820.890871	-452.127117	404.098090	802.445609	-341.530916	361.563421	699.475987	-474.027348	360.006750	614.644378	-453.766153	317.705819	536.882416	-452.800105	387.964160	610.668106	-426.326675	273.924191	397.925289	-450.748941	270.856718	399.913571	-359.281048	195.769543	365.550789	-411.973915	496.602388	385.803007	-416.783334	430.652140	341.356080	-478.472834	-185.367842	933.710801	-285.187213	-17.578711	79.134622	-485.306575	-17.344521	78.924313	-84.739866	
